================= Visit CBTorrents.com For More Exclusives ======================

Remember to signup on CBTorrents.com Its free and give you access to more Exclusives like this.



Format                           : MPEG-4
Format profile                   : Base Media / Version 2
Codec ID                         : mp42
File size                        : 399 MiB
Duration                         : 1h 42mn
Overall bit rate                 : 545 Kbps


Video
ID                               : 1
Format                           : AVC
Format/Info                      : Advanced Video Codec
Format profile                   : Main@L2.1
Format settings, CABAC           : Yes
Format settings, ReFrames        : 4 frames
Format settings, GOP             : N=1
Codec ID                         : avc1
Codec ID/Info                    : Advanced Video Coding
Duration                         : 1h 42mn
Bit rate mode                    : Variable
Bit rate                         : 382 Kbps
Width                            : 624 pixels
Height                           : 272 pixels
Display aspect ratio             : 2.25:1
Frame rate mode                  : Variable
Frame rate                       : 23.976 fps
Minimum frame rate               : 23.974 fps
Maximum frame rate               : 23.981 fps
Color space                      : YUV
Chroma subsampling               : 4:2:0
Bit depth                        : 8 bits
Scan type                        : Progressive
Bits/(Pixel*Frame)               : 0.094
Stream size                      : 279 MiB (70%)
Writing library                  : x264 core 112
Encoded date                     : UTC 2011-04-29 05:51:41
Tagged date                      : UTC 2011-04-29 06:32:16
Color primaries                  : BT.601-6 525, BT.1358 525, BT.1700 NTSC, SMPTE 170M
Transfer characteristics         : BT.709-5, BT.1361
Matrix coefficients              : BT.601-6 525, BT.1358 525, BT.1700 NTSC, SMPTE 170M

Audio
ID                               : 2
Format                           : AAC
Format/Info                      : Advanced Audio Codec
Format profile                   : LC
Codec ID                         : 40
Duration                         : 1h 42mn
Bit rate mode                    : Variable
Bit rate                         : 160 Kbps
Maximum bit rate                 : 287 Kbps
Channel(s)                       : 2 channels
Channel positions                : Front: L R
Sampling rate                    : 44.1 KHz
Compression mode                 : Lossy
Stream size                      : 117 MiB (29%)


Screens:
[IMG]http://www.bollywoodreleases.info/images/56322110043045730269.png[/IMG]
[IMG]http://www.bollywoodreleases.info/images/77771837641409975066.png[/IMG]
[IMG]http://www.bollywoodreleases.info/images/33626129928048387589.png[/IMG]


Sample included in Torrent

Credit to original Ripper


Remember to signup on CBTorrents.com Its free and give you access to more Exclusives like this.

================= Visit CBTorrents.com For More Exclusives ======================